<svg xmlns="http://www.w3.org/2000/svg" viewBox="0 0 512 512">
  <rect width="512" height="512" rx="100" fill="#1E1E1E"/>
  <g transform="translate(156, 76)">
    <path fill="#F24E1E" d="M50 180c-27.6 0-50-22.4-50-50s22.4-50 50-50h50v50c0 27.6-22.4 50-50 50z"/>
    <path fill="#FF7262" d="M0 80c0-27.6 22.4-50 50-50h50v100H50C22.4 130 0 107.6 0 80z"/>
    <path fill="#F24E1E" d="M0 -20c0-27.6 22.4-50 50-50h50v100H50C22.4 30 0 7.6 0 -20z"/>
    <path fill="#A259FF" d="M100 30h50c27.6 0 50 22.4 50 50s-22.4 50-50 50-50-22.4-50-50V30z"/>
    <path fill="#1ABCFE" d="M200 80c0 27.6-22.4 50-50 50s-50-22.4-50-50 22.4-50 50-50h50v50z"/>
  </g>
</svg>
